<?xml version="1.0" standalone="no"?>
<!DOCTYPE svg PUBLIC "-//W3C//DTD SVG 20010904//EN"
 "http://www.w3.org/TR/2001/REC-SVG-20010904/DTD/svg10.dtd">
<svg version="1.0" xmlns="http://www.w3.org/2000/svg"
 width="1024.000000pt" height="1024.000000pt" viewBox="0 0 1024.000000 1024.000000"
 preserveAspectRatio="xMidYMid meet">
<metadata>
Created by potrace 1.14, written by Peter Selinger 2001-2017
</metadata>
<g transform="translate(0.000000,1024.000000) scale(0.100000,-0.100000)"
fill="#000000" stroke="none">
<path d="M6160 8631 c5 -11 36 -40 68 -65 223 -173 499 -581 622 -919 86 -238
121 -425 127 -692 6 -243 -5 -363 -52 -559 -88 -368 -289 -740 -545 -1010 -86
-90 -323 -283 -425 -346 -114 -70 -365 -186 -497 -230 -163 -54 -373 -107
-478 -120 -126 -15 -439 -12 -582 5 -246 31 -512 110 -707 210 -499 257 -821
574 -1058 1044 -75 150 -161 417 -179 561 -2 19 -11 81 -19 137 -23 154 -19
517 7 616 5 21 6 52 3 68 -4 17 -2 29 3 29 9 0 24 50 47 160 l6 25 -11 -24
c-14 -32 -23 -21 -10 13 5 15 7 32 4 38 -4 6 -1 14 5 18 13 8 19 29 20 73 1
16 5 26 11 22 5 -3 7 0 4 8 -3 8 2 17 10 20 9 4 16 16 16 27 0 11 5 20 11 20
6 0 9 -6 6 -12 -15 -38 -16 -50 -2 -25 9 15 13 31 10 36 -9 15 16 112 27 105
5 -3 7 -17 4 -30 -9 -34 0 -30 13 6 6 18 6 28 1 25 -6 -4 -10 -1 -10 4 0 6 7
11 15 11 13 0 20 13 13 23 -2 2 4 11 13 20 10 9 15 26 12 39 -3 15 3 33 17 48
15 18 20 20 16 8 -9 -29 2 -21 29 22 14 23 23 45 20 50 -4 6 1 10 9 10 9 0 16
7 16 15 0 8 4 15 9 15 11 0 64 80 64 97 0 6 5 11 11 10 6 -1 10 6 10 15 -1 10
2 16 6 13 4 -2 15 4 25 15 10 11 16 20 13 20 -6 0 9 17 142 155 47 48 71 79
53 67 -17 -12 -37 -22 -45 -22 -29 0 -238 -119 -389 -221 -131 -89 -335 -275
-432 -396 -50 -62 -177 -255 -177 -268 0 -4 5 -3 12 1 7 4 8 3 4 -5 -4 -6 -11
-9 -16 -6 -12 8 -33 -33 -24 -47 5 -7 3 -8 -6 -3 -10 6 -12 4 -7 -9 4 -9 3
-15 -2 -12 -11 7 -93 -173 -87 -191 3 -8 2 -12 -2 -9 -12 7 -35 -61 -26 -75 4
-8 3 -9 -4 -5 -22 13 -98 -282 -122 -473 -18 -145 -20 -3276 -2 -3386 68 -411
233 -794 458 -1066 68 -81 258 -268 337 -330 75 -60 254 -163 347 -202 136
-56 303 -106 480 -145 l165 -37 1505 0 1505 0 145 23 c349 56 592 144 840 307
86 56 355 320 416 408 21 31 59 84 84 117 48 66 98 153 150 260 17 36 38 77
46 92 28 52 116 334 140 448 43 206 45 300 40 1415 -3 578 -6 1069 -6 1092 -1
38 -3 41 -18 32 -33 -21 -132 -155 -274 -371 -313 -475 -363 -551 -496 -748
-76 -113 -189 -275 -253 -360 -63 -85 -143 -193 -177 -240 -34 -47 -108 -144
-165 -216 -56 -72 -138 -178 -182 -234 -125 -161 -373 -450 -524 -610 -75 -80
-190 -203 -256 -275 -261 -282 -576 -614 -657 -690 -146 -138 -257 -177 -359
-124 -82 41 -399 339 -1051 988 -447 444 -443 439 -443 556 1 103 26 136 340
448 173 172 299 289 330 307 76 44 135 54 206 36 75 -20 102 -38 279 -180 80
-65 177 -143 215 -174 39 -31 102 -86 140 -124 l71 -67 229 227 c290 287 458
449 709 682 288 267 675 629 866 809 128 120 402 374 514 476 159 144 279 250
576 504 85 73 187 163 225 200 39 36 90 83 114 104 l43 39 -7 61 c-23 205
-122 512 -228 707 -304 557 -757 913 -1343 1056 -177 43 -277 53 -522 54 -178
0 -182 -1 -172 -19z m-4040 -964 c0 -8 -7 -14 -15 -14 -11 0 -12 4 -4 14 6 7
13 13 15 13 2 0 4 -6 4 -13z m343 -214 c2 -5 -1 -24 -8 -43 l-12 -35 1 43 c1
39 9 53 19 35z"/>
<path d="M4379 8620 c-78 -13 -160 -35 -250 -68 -187 -70 -220 -85 -334 -155
-122 -74 -177 -116 -170 -128 4 -5 -1 -6 -9 -3 -21 8 -341 -309 -333 -331 4
-8 1 -14 -6 -12 -7 1 -11 -4 -9 -11 1 -8 -2 -11 -7 -7 -11 6 -37 -34 -32 -50
1 -5 -1 -7 -5 -3 -4 4 -13 0 -19 -9 -12 -15 -6 -21 52 -46 35 -16 71 -26 79
-23 8 3 13 2 10 -3 -3 -4 38 -23 92 -41 53 -18 189 -66 302 -107 332 -121 433
-155 439 -146 18 25 126 96 191 127 147 69 292 89 449 62 132 -24 269 -78 334
-132 16 -13 33 -22 37 -19 5 3 12 0 16 -6 4 -8 3 -9 -4 -5 -24 15 -11 -2 14
-19 15 -9 24 -13 21 -7 -4 5 6 9 21 9 15 1 99 26 187 58 170 60 671 225 743
244 l43 12 -63 77 c-35 42 -82 102 -105 132 -86 112 -233 245 -378 341 -163
108 -232 141 -415 202 -200 67 -286 80 -550 83 -183 2 -247 -1 -341 -16z"/>
<path d="M4615 7380 c-99 -22 -156 -51 -229 -119 -110 -103 -165 -284 -133
-437 27 -128 77 -204 182 -280 245 -174 565 -96 691 169 68 143 68 275 0 412
-62 124 -144 200 -253 237 -66 22 -199 31 -258 18z"/>
<path d="M2946 7270 c-44 -279 -25 -581 55 -860 31 -107 125 -307 193 -414 41
-62 167 -217 250 -305 220 -233 586 -425 936 -491 58 -11 107 -20 111 -20 6 0
-21 158 -76 445 -33 174 -115 648 -115 666 0 8 -71 49 -85 49 -3 0 -5 -9 -5
-19 0 -33 -11 -51 -32 -51 -12 0 -17 -4 -12 -12 4 -7 3 -8 -4 -4 -8 5 -7 19 5
49 9 23 20 45 25 48 5 3 -15 27 -43 54 -28 26 -66 71 -85 99 -34 52 -74 153
-74 188 0 12 -11 23 -31 30 -110 38 -299 146 -644 368 -165 106 -194 122 -179
99 4 -8 0 -8 -15 0 -25 14 -28 22 -3 15 26 -9 -12 21 -78 60 -85 50 -87 50
-94 6z m924 -1424 c0 -2 -8 -10 -17 -17 -16 -13 -17 -12 -4 4 13 16 21 21 21
13z m-80 -90 c0 -3 -4 -8 -10 -11 -5 -3 -10 -1 -10 4 0 6 5 11 10 11 6 0 10
-2 10 -4z m-40 -51 c-7 -8 -18 -15 -24 -14 -7 0 -6 2 2 6 6 2 10 9 6 14 -3 5
2 9 12 9 13 0 14 -3 4 -15z m-33 -31 c-3 -3 -12 -4 -19 -1 -8 3 -5 6 6 6 11 1
17 -2 13 -5z"/>
<path d="M6410 7273 c-63 -36 -315 -186 -587 -350 -127 -77 -263 -153 -302
-168 -39 -16 -75 -33 -79 -39 -4 -6 -13 -33 -20 -61 -32 -130 -136 -276 -233
-325 -22 -12 -42 -26 -44 -33 -2 -7 -20 -106 -39 -222 -20 -115 -52 -289 -71
-385 -37 -185 -85 -464 -85 -492 0 -13 5 -15 33 -7 17 4 86 21 152 37 236 57
460 163 655 310 123 92 298 274 372 387 72 110 164 287 203 392 84 221 126
536 106 783 -6 74 -12 150 -13 168 -1 17 -2 32 -3 31 0 -1 -20 -12 -45 -26z"/>
</g>
</svg>
